<svg width="416" height="312" viewBox="0 0 416 312" fill="none" xmlns="http://www.w3.org/2000/svg">
<path d="M280.626 41.5537C280.619 37.0581 267.069 36.0333 267.069 36.0333C267.069 36.0333 256.085 36.6983 256.092 41.194C256.099 45.6896 254.325 47.162 267.088 48.3761C276.041 49.2277 280.633 46.0494 280.626 41.5537Z" fill="#80BAFF"/>
<path d="M208.973 181.761C206.022 180.319 204.199 182.392 202.757 185.343C201.315 188.293 202.365 189.605 205.316 191.047C208.267 192.489 210.262 192.666 211.704 189.715C213.146 186.764 211.923 183.203 208.973 181.761Z" fill="#FFDDBF"/>
<path d="M206.875 113.364C207.295 114.974 208.788 116 210.452 116H222.369C225.122 116 226.98 113.302 225.675 110.878C223.104 106.105 218.461 99.7566 212.038 100.007C204.465 100.303 205.71 108.9 206.875 113.364Z" fill="#FF9780"/>
<path d="M37.0128 121.647C34.1414 123.241 34.367 126.296 35.45 128.247C36.533 130.197 38.3325 131.08 41.2039 129.485C44.0753 127.891 45.2396 125.363 44.1566 123.413C43.0736 121.462 40.5322 119.225 37.0128 121.647Z" fill="#BBED58"/>
<path d="M371.418 201.966C368.971 203.325 369 205.634 369.791 207.06C370.583 208.485 372.02 209.063 374.467 207.705C376.913 206.346 378.002 204.366 377.21 202.94C376.419 201.514 374.441 199.946 371.418 201.966Z" fill="#FFDDBF"/>
<path d="M358.096 108.89C358.019 112.699 363.627 114.013 367.924 113.788C371.509 113.6 375.982 113.404 376.06 109.595C376.138 105.786 372.079 103.818 368.138 103.331C360.735 102.417 358.174 105.082 358.096 108.89Z" fill="#80BAFF"/>
<path d="M288 150H293.212C295.042 150 296.638 151.241 297.089 153.014L305.733 187.014C306.375 189.543 304.465 192 301.856 192H288C285.791 192 284 190.209 284 188V154C284 151.791 285.791 150 288 150Z" fill="#071D2B" fill-opacity="0.1"/>
<path d="M143 193H129.265C127.403 193 125.787 194.285 125.368 196.1L110.131 262.1C109.552 264.607 111.456 267 114.029 267H143C145.209 267 147 265.209 147 263V197C147 194.791 145.209 193 143 193Z" fill="#071D2B" fill-opacity="0.1"/>
<path d="M222.5 246.46V212.5L192.5 212.5V246.46M207.5 246.5V212.5" stroke="#071D2B" stroke-width="1.5" stroke-miterlimit="10" stroke-linecap="round" stroke-linejoin="round"/>
<path d="M277.504 199.5H283.504V225.5H277.504V199.5Z" stroke="#071D2B" stroke-width="1.5" stroke-miterlimit="10" stroke-linecap="round" stroke-linejoin="round"/>
<path d="M132.504 199.5H138.504V225.5H132.504V199.5Z" stroke="#071D2B" stroke-width="1.5" stroke-miterlimit="10" stroke-linecap="round" stroke-linejoin="round"/>
<path d="M112.504 141.5H103.504V147.5H112.504V141.5Z" stroke="#071D2B" stroke-width="1.5" stroke-miterlimit="10" stroke-linecap="round" stroke-linejoin="round"/>
<path d="M103.504 181.5H97.5039V187.5H103.504V181.5Z" stroke="#071D2B" stroke-width="1.5" stroke-miterlimit="10" stroke-linecap="round" stroke-linejoin="round"/>
<path d="M303.504 141.5H312.504V147.5H303.504V141.5Z" stroke="#071D2B" stroke-width="1.5" stroke-miterlimit="10" stroke-linecap="round" stroke-linejoin="round"/>
<path d="M312.504 181.5H318.504V187.5H312.504V181.5Z" stroke="#071D2B" stroke-width="1.5" stroke-miterlimit="10" stroke-linecap="round" stroke-linejoin="round"/>
<path d="M158.5 112.5V94.5H140.5C136.082 94.5 132.5 98.0817 132.5 102.5V112.383M141.168 94.5V90.5H154.498C156.707 90.5 158.498 92.2909 158.498 94.5M131.752 101.64H105.422V104.3L131.752 106.3M148.5 103.5C148.5 105.157 147.157 106.5 145.5 106.5C143.843 106.5 142.5 105.157 142.5 103.5C142.5 101.843 143.843 100.5 145.5 100.5C147.157 100.5 148.5 101.843 148.5 103.5Z" stroke="#071D2B" stroke-width="1.5" stroke-miterlimit="10" stroke-linecap="round" stroke-linejoin="round"/>
<path d="M257.422 112.383V94.5H275.422C279.84 94.5 283.422 98.0817 283.422 102.5V112.383M274.754 94.5V90.5H261.424C259.215 90.5 257.424 92.2909 257.424 94.5M284.17 101.64L310.5 91.64V94.3L284.17 106.3M267.422 103.5C267.422 105.157 268.765 106.5 270.422 106.5C272.079 106.5 273.422 105.157 273.422 103.5C273.422 101.843 272.079 100.5 270.422 100.5C268.765 100.5 267.422 101.843 267.422 103.5Z" stroke="#071D2B" stroke-width="1.5" stroke-miterlimit="10" stroke-linecap="round" stroke-linejoin="round"/>
<path d="M229.5 112.5C226.246 103.168 217.622 96.5 207.5 96.5C197.378 96.5 188.754 103.168 185.5 112.5" stroke="#071D2B" stroke-width="1.5" stroke-miterlimit="10" stroke-linecap="round" stroke-linejoin="round"/>
<path d="M207.501 96V74.5M207.5 75.5C213.124 76.3882 218.879 76.579 224.5 75.5V85.5C219.039 86.6781 212.5 86.5 207.5 84.8836" stroke="#071D2B" stroke-width="1.5" stroke-miterlimit="10" stroke-linecap="round" stroke-linejoin="round"/>
<path d="M198.5 227.5L201.5 224.5M198.5 223.5L201.5 220.5M213.5 237.5L216.5 234.5M213.5 233.5L216.5 230.5" stroke="#071D2B" stroke-width="1.5" stroke-miterlimit="10" stroke-linecap="round" stroke-linejoin="round"/>
<path d="M375.499 275.5C349.724 275.5 253.499 275.5 253.499 275.5L265.684 134.156C265.862 132.088 267.593 130.5 269.669 130.5H314.476C316.49 130.5 318.189 131.997 318.444 133.995L337.999 287.5H205.999H77.9987L97.5536 133.995C97.808 131.997 99.5078 130.5 101.521 130.5H146.329C148.405 130.5 150.136 132.088 150.314 134.156L159.999 246.5H101.999L132.499 112.5H283.499L314.499 246.5H235.499V158.5C235.499 157.395 234.603 156.5 233.499 156.5H207.999H182.499C181.394 156.5 180.499 157.395 180.499 158.5V245.5C180.499 246.052 180.946 246.5 181.499 246.5H223.499C226.26 246.5 228.499 248.739 228.499 251.5V251.5C228.499 254.261 226.26 256.5 223.499 256.5H171.499C168.737 256.5 166.499 258.739 166.499 261.5V261.5C166.499 264.261 168.737 266.5 171.499 266.5H236.999C239.484 266.5 241.499 268.515 241.499 271V271C241.499 273.485 239.484 275.5 236.999 275.5H40.5" stroke="#071D2B" stroke-width="1.5" stroke-miterlimit="10" stroke-linecap="round" stroke-linejoin="round"/>
<path d="M207.422 188.5C204.66 188.5 202.422 186.261 202.422 183.5C202.422 180.739 204.66 178.5 207.422 178.5C210.183 178.5 212.422 180.739 212.422 183.5C212.422 186.261 210.183 188.5 207.422 188.5Z" stroke="#071D2B" stroke-width="1.5" stroke-miterlimit="10" stroke-linecap="round" stroke-linejoin="round"/>
<path d="M78.502 50.5H84.502C90.5771 50.5 95.502 55.4249 95.502 61.5V61.5V66" stroke="#071D2B" stroke-width="1.5" stroke-miterlimit="10" stroke-linecap="round" stroke-linejoin="round"/>
<path d="M59.5 44.5H97.5002" stroke="#071D2B" stroke-width="1.5" stroke-miterlimit="10" stroke-linecap="round" stroke-linejoin="round"/>
<path d="M78.502 50.5C78.502 51.9567 78.502 53.2562 78.502 54.5003C78.502 58.9186 74.9202 62.5 70.502 62.5H65.0001M78.502 50.5V45.5M78.502 50.5H71.5096C67.0871 50.5 63.502 54.0851 63.502 58.5077V58.5077C63.502 62.9302 67.0871 66.5153 71.5096 66.5153H108.502C109.607 66.5153 110.502 65.6199 110.502 64.5153V59C110.502 57.6193 109.383 56.5 108.002 56.5V56.5C106.621 56.5 105.502 57.6193 105.502 59V61.5H87.0001C83.9626 61.5 81.5001 63.9624 81.5001 67V67" stroke="#071D2B" stroke-width="1.5" stroke-miterlimit="10" stroke-linecap="round" stroke-linejoin="round"/>
<path d="M68.5 72.5H88" stroke="#071D2B" stroke-width="1.5" stroke-miterlimit="10" stroke-linecap="round" stroke-linejoin="round"/>
<path d="M81.5039 67.5V72.5" stroke="#071D2B" stroke-width="1.5" stroke-miterlimit="10" stroke-linecap="round" stroke-linejoin="round"/>
<path d="M74.5039 67.5V72.5" stroke="#071D2B" stroke-width="1.5" stroke-miterlimit="10" stroke-linecap="round" stroke-linejoin="round"/>
<path d="M124.5 58.5H146.5M121.5 64.5H128.5M119.5 52.5H135.5" stroke="#071D2B" stroke-width="1.5" stroke-miterlimit="10" stroke-linecap="round" stroke-linejoin="round"/>
<path d="M256.891 42.9401C252.021 42.9501 251.771 39.1401 252.111 38.3101C255.181 30.9701 261.581 34.6901 263.331 32.7501C264.231 31.7401 264.511 31.6001 265.571 30.8001C269.651 27.7101 272.501 34.1001 275.631 30.6201C277.151 28.9201 282.311 28.8601 283.581 32.9801C284.711 36.7001 287.651 34.7401 289.921 36.4601C291.771 37.8601 294.041 39.6701 292.201 41.8901C290.721 43.6701 286.701 43.0001 283.801 42.9201C272.731 42.5901 267.931 42.9301 256.891 42.9401Z" stroke="#071D2B" stroke-width="1.5" stroke-miterlimit="10" stroke-linecap="round" stroke-linejoin="round"/>
<path d="M355.498 108.5C351.808 108.5 351.959 106.109 352.498 104.5C353.756 100.75 359.449 102.13 360.919 100.75C361.466 100.211 362.054 99.7161 362.679 99.2701C365.909 96.9701 367.749 101.86 370.249 99.1801C371.449 97.8901 375.319 97.8901 376.059 101.03C376.709 103.8 380.313 102.638 380.998 104.5C381.952 107.092 378.392 108.5 375.498 108.5C375.498 108.5 362.346 108.5 355.498 108.5Z" stroke="#071D2B" stroke-width="1.5" stroke-linecap="round" stroke-linejoin="round"/>
<path d="M342.5 52.5V56.4062M342.5 60.5V64.5M348.5 58.5H344.594M340.406 58.5H336.5" stroke="#071D2B" stroke-width="1.5" stroke-miterlimit="10" stroke-linecap="round" stroke-linejoin="round"/>
<path d="M37.5 124.5C39.1569 124.5 40.5 123.157 40.5 121.5C40.5 119.843 39.1569 118.5 37.5 118.5C35.8431 118.5 34.5 119.843 34.5 121.5C34.5 123.157 35.8431 124.5 37.5 124.5Z" stroke="#071D2B" stroke-width="1.5" stroke-miterlimit="10" stroke-linecap="round" stroke-linejoin="round"/>
</svg>
